<svg width="15" height="77" viewBox="0 0 15 77" fill="none" xmlns="http://www.w3.org/2000/svg">
<path d="M3.96191 1.76465C4.04773 1.73392 4.14362 1.75213 4.21191 1.8125C6.15759 3.53485 7.85562 4.26391 9.43359 4.56738C11.0275 4.8739 12.4977 4.75001 14.0459 4.75C14.1371 4.75 14.2217 4.7999 14.2656 4.87988C14.3093 4.95975 14.3057 5.05692 14.2568 5.13379L10.7568 10.6338C10.7109 10.7059 10.6314 10.75 10.5459 10.75C10.3459 10.7499 10.0856 10.6552 9.81445 10.5234C9.53136 10.3858 9.19681 10.1881 8.83496 9.94141C8.11062 9.44752 7.26069 8.74864 6.46582 7.92383C5.67152 7.09957 4.92524 6.14148 4.41699 5.12793C3.90911 4.11503 3.63024 3.02944 3.79883 1.96094L3.81836 1.89648C3.84591 1.83586 3.89749 1.78779 3.96191 1.76465Z" fill="white" stroke="white" stroke-width="0.5" stroke-linecap="round" stroke-linejoin="round"/>
</svg>
