<svg width="23" height="20" viewBox="0 0 23 20" fill="none" xmlns="http://www.w3.org/2000/svg">
<path d="M14.0859 0C14.6163 3.9901e-05 15.125 0.2109 15.5 0.585938L16.9141 2H21C22.1046 2 23 2.89543 23 4V17.5C23 18.6046 22.1046 19.5 21 19.5H2C0.89543 19.5 0 18.6046 0 17.5V4C0 2.89543 0.895431 2 2 2H6.38184L6.8291 1.10547C7.1679 0.427931 7.86064 0 8.61816 0H14.0859ZM8.61816 1L8.47754 1.00977C8.15532 1.05542 7.87182 1.2564 7.72363 1.55273L7.27637 2.44727L7.20508 2.56836C7.02014 2.83629 6.71327 3 6.38184 3H2C1.44772 3 1 3.44772 1 4V17.5C1 18.0523 1.44772 18.5 2 18.5H21C21.5523 18.5 22 18.0523 22 17.5V4C22 3.44772 21.5523 3 21 3H16.9141C16.6489 2.99996 16.3945 2.89453 16.207 2.70703L14.793 1.29297C14.6289 1.12886 14.4135 1.0276 14.1846 1.00488L14.0859 1H8.61816ZM11.5 5.5C14.2614 5.5 16.5 7.73858 16.5 10.5C16.5 13.2614 14.2614 15.5 11.5 15.5C8.73858 15.5 6.5 13.2614 6.5 10.5C6.5 7.73858 8.73858 5.5 11.5 5.5ZM11.5 6.5C9.29086 6.5 7.5 8.29086 7.5 10.5C7.5 12.7091 9.29086 14.5 11.5 14.5C13.7091 14.5 15.5 12.7091 15.5 10.5C15.5 8.29086 13.7091 6.5 11.5 6.5Z" fill="#9AA1AE"/>
</svg>
