<svg width="21" height="17" viewBox="0 0 21 17" fill="none" xmlns="http://www.w3.org/2000/svg">
<path d="M20.5 9.5L17.3333 6.5L11.2893 0.774047C11.1035 0.598077 10.8574 0.5 10.6015 0.5H10.3985C10.1426 0.5 9.89647 0.598077 9.71073 0.774047L3.5 6.65789L0.5 9.5M17.3333 6.5L17.0322 15.5333C17.0143 16.0723 16.5721 16.5 16.0328 16.5H13C12.4477 16.5 12 16.0523 12 15.5V12.277C12 12.0957 11.9539 11.9157 11.8464 11.7698C11.2937 11.0186 10.1987 10.2534 9.15077 11.7658C9.04755 11.9148 9 12.0957 9 12.277V15.5C9 16.0523 8.55228 16.5 8 16.5H4.5C3.94772 16.5 3.5 16.0523 3.5 15.5V6.65789" stroke="#9AA1AE" stroke-linecap="round" stroke-linejoin="round"/>
</svg>
