<svg width="21" height="19" viewBox="0 0 21 19" fill="none" xmlns="http://www.w3.org/2000/svg">
<path d="M0.5 11V1.5C0.5 0.947715 0.947716 0.5 1.5 0.5H19.5C20.0523 0.5 20.5 0.947715 20.5 1.5V16M0.5 11V17C0.5 17.5523 0.947715 18 1.5 18H19.5C20.0523 18 20.5 17.5523 20.5 17V16M0.5 11L4.29289 7.20711C4.68342 6.81658 5.31658 6.81658 5.70711 7.20711L10.8543 12.3543C11.22 12.72 11.8042 12.7465 12.2016 12.4154L13.8285 11.0596C14.213 10.7391 14.7753 10.7524 15.1444 11.0907L20.5 16" stroke="#9AA1AE"/>
</svg>
