<svg width="15" height="25" viewBox="0 0 15 25" fill="none" xmlns="http://www.w3.org/2000/svg">
<path d="M14.5 12.5C14.7761 12.5 15 12.7239 15 13C15 16.5084 11.8444 19.2619 8 19.4834V24C8 24.2761 7.77614 24.5 7.5 24.5C7.22386 24.5 7 24.2761 7 24V19.4834C3.15556 19.2619 0 16.5084 0 13C0 12.7239 0.223858 12.5 0.5 12.5C0.776142 12.5 1 12.7239 1 13C1 15.968 3.83506 18.5 7.5 18.5C11.1649 18.5 14 15.968 14 13C14 12.7239 14.2239 12.5 14.5 12.5ZM7.5 0C10.2614 0 12.5 2.23858 12.5 5V11C12.5 13.7614 10.2614 16 7.5 16C4.73858 16 2.5 13.7614 2.5 11V5C2.5 2.23858 4.73858 0 7.5 0ZM7.5 1C5.29086 1 3.5 2.79086 3.5 5V11C3.5 13.2091 5.29086 15 7.5 15C9.70914 15 11.5 13.2091 11.5 11V5C11.5 2.79086 9.70914 1 7.5 1Z" fill="#9AA1AE"/>
</svg>
